HIERARCHY
ROOT Hips
{
	OFFSET 0.000000 0.000000 0.000000
	CHANNELS 6 Xposition Yposition Zposition Xrotation Yrotation Zrotation
	JOINT LeftUpLeg_virtual
	{
		OFFSET 0.000000 0.000000 0.000000
		CHANNELS 3 Xrotation Yrotation Zrotation
		JOINT LeftUpLeg
		{
			OFFSET 11.394100 -6.187798 -0.413800
			CHANNELS 3 Xrotation Yrotation Zrotation
			JOINT LeftLeg
			{
				OFFSET 0.430247 -32.302673 3.732800
				CHANNELS 3 Xrotation Yrotation Zrotation
				JOINT LeftFoot
				{
					OFFSET -0.430247 -48.264931 -6.423300
					CHANNELS 3 Xrotation Yrotation Zrotation
					JOINT LeftToeBase
					{
						OFFSET 4.230900 -16.068199 23.438400
						CHANNELS 3 Xrotation Yrotation Zrotation
						JOINT LeftToe_End
						{
							OFFSET 4.510700 0.695400 19.974600
							CHANNELS 3 Xrotation Yrotation Zrotation
							End Site
							{
								OFFSET 0 0 0
							}
						}
					}
				}
			}
		}
	}
	JOINT RightUpLeg_virtual
	{
		OFFSET 0.000000 0.000000 0.000000
		CHANNELS 3 Xrotation Yrotation Zrotation
		JOINT RightUpLeg
		{
			OFFSET -11.333700 -6.187798 -0.413800
			CHANNELS 3 Xrotation Yrotation Zrotation
			JOINT RightLeg
			{
				OFFSET -0.430392 -32.302628 3.733000
				CHANNELS 3 Xrotation Yrotation Zrotation
				JOINT RightFoot
				{
					OFFSET 0.430392 -48.264973 -6.423500
					CHANNELS 3 Xrotation Yrotation Zrotation
					JOINT RightToeBase
					{
						OFFSET -4.230900 -16.068199 23.438400
						CHANNELS 3 Xrotation Yrotation Zrotation
						JOINT RightToe_End
						{
							OFFSET -4.510700 0.695400 19.974600
							CHANNELS 3 Xrotation Yrotation Zrotation
							End Site
							{
								OFFSET 0 0 0
							}
						}
					}
				}
			}
		}
	}
	JOINT Spine_virtual
	{
		OFFSET 0.000000 0.000000 0.000000
		CHANNELS 3 Xrotation Yrotation Zrotation
		JOINT Spine
		{
			OFFSET -0.002400 12.777504 0.315300
			CHANNELS 3 Xrotation Yrotation Zrotation
			JOINT Spine1
			{
				OFFSET -0.002067 5.816869 0.032633
				CHANNELS 3 Xrotation Yrotation Zrotation
				JOINT Spine1_split
				{
					OFFSET -0.002067 5.816869 0.032633
					CHANNELS 3 Xrotation Yrotation Zrotation
					JOINT Spine2
					{
						OFFSET -0.002067 5.816869 0.032633
						CHANNELS 3 Xrotation Yrotation Zrotation
						JOINT Neck_virtual
						{
							OFFSET 0.000000 0.000000 0.000000
							CHANNELS 3 Xrotation Yrotation Zrotation
							JOINT Neck
							{
								OFFSET -0.003700 21.199493 -0.826900
								CHANNELS 3 Xrotation Yrotation Zrotation
								JOINT Head
								{
									OFFSET 0.000000 20.442200 4.834800
									CHANNELS 3 Xrotation Yrotation Zrotation
									JOINT HeadTop_End
									{
										OFFSET 0.000000 34.668396 4.968400
										CHANNELS 3 Xrotation Yrotation Zrotation
										End Site
										{
											OFFSET 0 0 0
										}
									}
								}
							}
						}
						JOINT LeftShoulder_virtual
						{
							OFFSET 0.000000 0.000000 0.000000
							CHANNELS 3 Xrotation Yrotation Zrotation
							JOINT LeftShoulder
							{
								OFFSET 3.288150 8.794197 -1.372250
								CHANNELS 3 Xrotation Yrotation Zrotation
								JOINT LeftShoulder_split
								{
									OFFSET 3.288150 8.794197 -1.372250
									CHANNELS 3 Xrotation Yrotation Zrotation
									JOINT LeftArm
									{
										OFFSET 11.953299 -2.279007 -0.146200
										CHANNELS 3 Xrotation Yrotation Zrotation
										JOINT LeftForeArm
										{
											OFFSET 18.448900 0.000000 0.000000
											CHANNELS 3 Xrotation Yrotation Zrotation
											JOINT LeftHand
											{
												OFFSET 29.527798 0.000000 0.000000
												CHANNELS 3 Xrotation Yrotation Zrotation
												End Site
												{
													OFFSET 0 0 0
												}
											}
										}
									}
								}
							}
						}
						JOINT RightShoulder_virtual
						{
							OFFSET 0.000000 0.000000 0.000000
							CHANNELS 3 Xrotation Yrotation Zrotation
							JOINT RightShoulder
							{
								OFFSET -3.249400 8.794197 -1.372250
								CHANNELS 3 Xrotation Yrotation Zrotation
								JOINT RightShoulder_split
								{
									OFFSET -3.249400 8.794197 -1.372250
									CHANNELS 3 Xrotation Yrotation Zrotation
									JOINT RightArm
									{
										OFFSET -11.953299 -2.279007 -0.146200
										CHANNELS 3 Xrotation Yrotation Zrotation
										JOINT RightForeArm
										{
											OFFSET -18.448900 0.000000 0.000000
											CHANNELS 3 Xrotation Yrotation Zrotation
											JOINT RightHand
											{
												OFFSET -29.527802 0.000000 0.000000
												CHANNELS 3 Xrotation Yrotation Zrotation
												End Site
												{
													OFFSET 0 0 0
												}
											}
										}
									}
								}
							}
						}
					}
				}
			}
		}
	}
}
MOTION
Frames: 4
Frame Time: 0.03333333
0.056635 101.479836 0.403202 0.000000 0.000000 0.000000 -5.480042 -12.065932 -1.321563 -0.490408 21.409453 1.235946 13.323892 4.442606 1.237252 -8.017534 -1.268396 -0.780193 -0.077377 -0.000321 -0.084732 0.000000 0.000000 0.000000 -5.480042 -12.065932 -1.321563 -4.636014 -8.872516 -11.314452 6.080958 -13.789980 -0.213526 6.218376 -0.130571 8.765379 -0.002832 0.000039 0.000574 0.000000 0.000000 0.000000 -5.480042 -12.065932 -1.321563 12.256213 1.526903 -1.386980 -3.993952 -8.493233 0.813504 0.000000 0.000000 0.000000 0.000000 0.000000 0.000000 -5.969557 4.580064 -2.629902 11.255320 0.027612 0.080739 -1.984797 -0.580072 3.370286 0.000000 0.000000 0.000000 -5.969557 4.580064 -2.629902 4.233561 -14.085167 -0.897023 0.000000 0.000000 0.000000 5.919387 4.805980 -79.119375 2.144038 -12.162858 0.993651 0.000000 0.000000 0.000000 -5.969557 4.580064 -2.629902 3.456613 7.912192 4.381422 0.000000 0.000000 0.000000 4.870319 0.880825 78.811811 0.216083 17.510295 -0.089622 0.000000 0.000000 0.000000 
-0.050470 101.367981 0.232506 0.000000 0.000000 0.000000 -5.401262 -11.698269 -1.336450 -1.350567 21.435005 1.641610 14.206001 3.949836 1.202918 -8.179224 -1.200915 -0.740041 -0.077583 -0.000307 -0.084322 0.000000 0.000000 0.000000 -5.401262 -11.698269 -1.336450 -5.205603 -8.767527 -11.299476 6.959004 -13.821665 -0.237086 5.860215 -0.102543 8.848020 -0.002810 0.000015 0.000570 0.000000 0.000000 0.000000 -5.401262 -11.698269 -1.336450 12.257648 1.543548 -1.559112 -4.018684 -8.493298 0.862145 0.000000 0.000000 0.000000 0.000000 0.000000 0.000000 -6.005033 4.580153 -2.583796 11.160979 -0.091042 0.230802 -1.910302 -0.714434 3.577409 0.000000 0.000000 0.000000 -6.005033 4.580153 -2.583796 4.037701 -13.737900 -1.155442 0.000000 0.000000 0.000000 5.705732 4.632387 -78.161502 2.775907 -11.939536 0.681372 0.000000 0.000000 0.000000 -6.005033 4.580153 -2.583796 3.306759 7.693738 4.690965 0.000000 0.000000 0.000000 5.157379 2.358697 78.058933 0.618388 17.828501 0.086500 0.000000 0.000000 0.000000 
-0.093501 101.230530 -0.023952 0.000000 0.000000 0.000000 -5.115081 -11.221127 -1.449323 -2.780950 21.554323 2.275254 15.420211 3.107275 1.146548 -8.387395 -1.015996 -0.568001 -0.078411 -0.000330 -0.082518 0.000000 0.000000 0.000000 -5.115081 -11.221127 -1.449323 -5.914025 -8.665137 -11.138173 7.686540 -14.077400 -0.312914 5.633023 0.013624 8.947778 -0.002825 0.000015 0.000566 0.000000 0.000000 0.000000 -5.115081 -11.221127 -1.449323 12.026618 1.505437 -1.577098 -4.022316 -8.545089 0.875560 0.000000 0.000000 0.000000 0.000000 0.000000 0.000000 -5.995742 4.530749 -2.565628 11.168335 -0.150682 0.337645 -2.005923 -0.852417 3.997329 0.000000 0.000000 0.000000 -5.995742 4.530749 -2.565628 3.847713 -13.403311 -1.405392 0.000000 0.000000 0.000000 5.532357 4.526082 -77.236995 3.314035 -11.916836 0.364356 0.000000 0.000000 0.000000 -5.995742 4.530749 -2.565628 3.160101 7.466488 4.995547 0.000000 0.000000 0.000000 5.215060 3.771392 77.294997 1.040015 17.904627 0.279791 0.000000 0.000000 0.000000 
-0.090803 101.084335 -0.312897 0.000000 0.000000 0.000000 -4.820300 -10.753882 -1.576350 -4.261340 21.765518 2.964440 16.636544 3.356150 1.162272 -8.603026 -2.005178 -0.634037 -0.078374 -0.000333 -0.082558 0.000000 0.000000 0.000000 -4.820300 -10.753882 -1.576350 -6.628819 -8.565143 -10.996977 8.366685 -14.384372 -0.392696 5.456315 0.189461 9.068032 -0.002843 0.000048 0.000585 0.000000 0.000000 0.000000 -4.820300 -10.753882 -1.576350 11.799143 1.459168 -1.553285 -4.021570 -8.603171 0.869361 0.000000 0.000000 0.000000 0.000000 0.000000 0.000000 -5.990046 4.474535 -2.565251 11.212783 -0.270851 0.439726 -2.185507 -1.078971 4.511955 0.000000 0.000000 0.000000 -5.990046 4.474535 -2.565251 3.662327 -13.070533 -1.648168 0.000000 0.000000 0.000000 5.339321 4.445793 -76.353005 3.819318 -12.052615 0.052221 0.000000 0.000000 0.000000 -5.990046 4.474535 -2.565251 3.014129 7.214280 5.302225 0.000000 0.000000 0.000000 5.073865 4.893765 76.538403 1.483913 17.779551 0.540763 0.000000 0.000000 0.000000 
